<svg width="501" height="501" viewBox="0 0 501 501" fill="none" xmlns="http://www.w3.org/2000/svg">
<g clip-path="url(#clip0_18_2)">
<path d="M250.907 500.339C388.978 500.339 500.907 388.41 500.907 250.339C500.907 112.268 388.978 0.338989 250.907 0.338989C112.836 0.338989 0.906982 112.268 0.906982 250.339C0.906982 388.41 112.836 500.339 250.907 500.339Z" fill="black"/>
<path d="M94 352V147H162.927C178.929 147 192.011 149.902 202.17 155.709C212.397 161.448 219.967 169.222 224.881 179.031C229.794 188.84 232.251 199.784 232.251 211.864C232.251 223.942 229.794 234.919 224.881 244.796C220.033 254.672 212.53 262.547 202.371 268.418C192.21 274.225 179.195 277.127 163.325 277.127H113.92V255.105H162.527C173.485 255.105 182.283 253.204 188.923 249.4C195.563 245.596 200.378 240.457 203.366 233.986C206.421 227.445 207.948 220.071 207.948 211.864C207.948 203.656 206.421 196.314 203.366 189.842C200.378 183.369 195.531 178.297 188.823 174.627C182.117 170.89 173.219 169.022 162.129 169.022H118.701V352H94ZM259.593 352H233.695L308.598 147H334.097L409 352H383.103L322.144 179.431H320.551L259.593 352ZM269.155 271.922H373.541V293.943H269.155V271.922Z" fill="white"/>
</g>
<defs>
<clipPath id="clip0_18_2">
<rect width="501" height="501" fill="white"/>
</clipPath>
</defs>
</svg>
